# xmcd
#
# Track frame offsets:
#	150
#	11618
#	23235
#	36366
#	48392
#	63612
#	76577
#	88805
#	98596
#	111662
#
# Disc length: 1621 seconds
#
# Revision: 1
# Processed by: cddbd v1.5.2PL0 Copyright (c) Steve Scherf et al.
# Submitted via: audiograbber 1.82.01
#
DISCID=7b06530a
DTITLE=Ovila Landry - La Fille De Minuit
DYEAR=1900
DGENRE=Country
TTITLE0=05 Porte Fermer - 05 Porte Fermer
TTITLE1=01 L a Fille de Minuit - 01 L a Fille de Minuit
TTITLE2=02 Mon Grand Malheur - 02 Mon Grand Malheur
TTITLE3=03 Le Train Bleu de la Gaspésie - 03 Le Train Bleu de la Gaspésie
TTITLE4=04 Soufrir ainsi - 04 Soufrir ainsi
TTITLE5=05 Une dernière pensée - 05 Une dernière pensée
TTITLE6=01 Ne pour perdre - 01 Ne pour perdre
TTITLE7=02 Souvenir de la Valse Passé - 02 Souvenir de la Valse Passé
TTITLE8=03 - Divorce
TTITLE9=04 J'ai vu la lumière - 04 J'ai vu la lumière
EXTD=
EXTT0=
EXTT1=
EXTT2=
EXTT3=
EXTT4=
EXTT5=
EXTT6=
EXTT7=
EXTT8=
EXTT9=
PLAYORDER=
